g woman_1
v -1.546316E-07 0.01199986 -0.1977074
v 0.2197125 0.2155641 -0.2197122
v -1.727755E-07 0.215564 -0.3107203
v 0.1398003 0.01199988 -0.1398001
v 0.3107203 0.2155641 2.85954E-07
v 0.1977076 0.01199991 3.118313E-07
v 0.2197125 0.2155641 0.219713
v 0.1398003 0.01199992 0.1398008
v -1.795334E-07 0.2155641 0.3107209
v -1.589316E-07 0.01199992 0.197708
v -0.2197128 0.215564 0.219713
v -0.1398007 0.01199989 0.1398008
v -0.3107208 0.215564 2.791961E-07
v -0.1977079 0.01199987 3.075313E-07
v -0.2197128 0.215564 -0.2197122
v -0.1398007 0.01199986 -0.1398002
v -1.727755E-07 0.215564 -0.3107203
v -1.546316E-07 0.01199986 -0.1977074
v -1.992763E-07 0.4191282 0.3447483
v -0.243774 0.4191281 0.243774
v -0.2005905 0.6106539 0.2005906
v -2.168394E-07 0.6106539 0.2836778
v 0.2437735 0.4191282 0.243774
v 0.20059 0.6106539 0.2005906
v 0.108187 0.7769996 0.1081876
v -2.312492E-07 0.7769996 0.1530003
v -0.1081875 0.7769995 0.1081876
v -2.624451E-07 1.101107 0.1852921
v -0.1517664 0.8816671 0.1532994
v -0.1517664 1.059055 0.1288736
v -2.429256E-07 0.8925834 0.215208
v 0.1517658 1.059055 0.1288736
v 0.1517658 0.8816671 0.1532994
v -0.1081875 0.7769995 0.1081876
v -0.1530002 0.7769995 2.061516E-07
v -2.312492E-07 0.7769996 0.1530003
v 0.108187 0.7769996 0.1081876
v 0.1529997 0.7769995 2.094792E-07
v 0.1077447 1.169005 0.05817014
v 0.1517658 1.059055 0.1288736
v -2.624451E-07 1.101107 0.1852921
v -5.799457E-07 1.176286 0.09946334
v -5.800133E-07 1.187276 0.00950086
v -0.1517664 1.059055 0.1288736
v -0.1077458 1.169005 0.05817014
v -0.1517664 1.059055 0.1288736
v -0.281825 0.9518693 0.02482563
v -0.1517664 0.8816671 0.1532994
v -0.1431591 1.151427 -0.04152044
v -5.800133E-07 1.187276 0.00950086
v -0.101229 1.133849 -0.1412107
v -5.721478E-07 1.126568 -0.1825038
v 0.1012277 1.133849 -0.1412107
v 0.1431578 1.151427 -0.04152044
v 0.1077447 1.169005 0.05817014
v 0.1517658 1.059055 0.1288736
v 0.2818245 0.9518694 0.02482564
v 0.1517658 0.8816671 0.1532994
v -0.2416131 0.8194298 0.01077139
v -0.1530002 0.7769995 2.061516E-07
v -0.1081876 0.7769995 -0.108187
v -0.1708463 0.8075429 -0.1579572
v -0.2075722 0.9190432 -0.1772495
v -2.279215E-07 0.7769995 -0.1529997
v -2.300048E-07 0.8075429 -0.2287238
v -2.390433E-07 0.9054463 -0.2543617
v 0.108187 0.7769995 -0.108187
v 0.2075718 0.9190432 -0.1772495
v 0.1708459 0.807543 -0.1579572
v 0.1529997 0.7769995 2.094792E-07
v 0.2416127 0.8194298 0.0107714
v -1.917783E-07 0.4191281 -0.3447478
v -1.727755E-07 0.215564 -0.3107203
v 0.2197125 0.2155641 -0.2197122
v 0.2437736 0.4191281 -0.2437734
v 0.3107203 0.2155641 2.85954E-07
v 0.3447481 0.4191281 2.592179E-07
v 0.2197125 0.2155641 0.219713
v 0.2437735 0.4191282 0.243774
v 0.20059 0.6106539 0.2005906
v 0.2836773 0.6106539 2.330506E-07
v 0.1529997 0.7769995 2.094792E-07
v 0.108187 0.7769996 0.1081876
v 0.2437736 0.4191281 -0.2437734
v 0.2836773 0.6106539 2.330506E-07
v 0.2005902 0.6106539 -0.2005899
v -2.106696E-07 0.6106538 -0.2836772
v -2.279215E-07 0.7769995 -0.1529997
v 0.108187 0.7769995 -0.108187
v 0.1529997 0.7769995 2.094792E-07
v -0.243774 0.4191281 0.243774
v -0.2197128 0.215564 0.219713
v -0.3107208 0.215564 2.791961E-07
v -0.3447483 0.4191281 2.517199E-07
v -0.2197128 0.215564 -0.2197122
v -0.243774 0.4191281 -0.2437734
v -1.727755E-07 0.215564 -0.3107203
v -1.917783E-07 0.4191281 -0.3447478
v -0.2836778 0.6106538 2.268808E-07
v -0.2005905 0.6106539 0.2005906
v -0.1081875 0.7769995 0.1081876
v -0.1530002 0.7769995 2.061516E-07
v -0.243774 0.4191281 -0.2437734
v -2.106696E-07 0.6106538 -0.2836772
v -0.2005905 0.6106538 -0.2005899
v -0.2836778 0.6106538 2.268808E-07
v -0.1530002 0.7769995 2.061516E-07
v -0.1081876 0.7769995 -0.108187
v -2.279215E-07 0.7769995 -0.1529997
v -1.992763E-07 0.4191282 0.3447483
v -0.2197128 0.215564 0.219713
v -0.243774 0.4191281 0.243774
v -1.795334E-07 0.2155641 0.3107209
v 0.2437735 0.4191282 0.243774
v 0.2197125 0.2155641 0.219713
v 0.1012277 1.133849 -0.1412107
v 0.2818245 0.9518694 0.02482564
v 0.1431578 1.151427 -0.04152044
v 0.2075718 0.9190432 -0.1772495
v -5.721478E-07 1.126568 -0.1825038
v -2.390433E-07 0.9054463 -0.2543617
v -0.101229 1.133849 -0.1412107
v -0.2075722 0.9190432 -0.1772495
v -0.1431591 1.151427 -0.04152044
v -0.281825 0.9518693 0.02482563
v -0.2723052 0.01199997 -0.2723059
v 0.2723052 0.01200003 0.2723059
v -0.3850996 0.01199996 4.536516E-08
v 0.385098 0.01200003 4.020393E-09
v 0.2723052 0.01200002 -0.2723059
v 3.045768E-09 0.01199999 -0.3850987
v -0.2723052 0.01199997 0.2723059
v -0.3850996 0.01199996 4.536516E-08
v 0.2723052 0.01200003 0.2723059
v -5.329806E-09 0.012 0.3850987
vt 0.3014978 0.6205006
vt 0.301484 0.6205229
vt 0.3015053 0.6205225
vt 0.3014825 0.6205018
vt 0.3014633 0.6205205
vt 0.3014641 0.6204998
vt 0.3014429 0.6205184
vt 0.301444 0.6204977
vt 0.3014225 0.6205173
vt 0.301423 0.6204966
vt 0.3014021 0.6205174
vt 0.3014021 0.6204966
vt 0.3013816 0.6205184
vt 0.3013818 0.6204977
vt 0.3013608 0.6205198
vt 0.3013634 0.6204988
vt 0.3013395 0.6205184
vt 0.3013481 0.6204968
vt 0.3398182 0.6214586
vt 0.3397983 0.6214585
vt 0.3397989 0.6214765
vt 0.3398178 0.6214767
vt 0.339838 0.6214595
vt 0.3398366 0.6214774
vt 0.339835 0.6214963
vt 0.3398173 0.6214956
vt 0.3397995 0.6214954
vt 0.3556539 0.6209412
vt 0.3556339 0.6209179
vt 0.3556329 0.6209362
vt 0.355654 0.6209198
vt 0.355675 0.6209363
vt 0.355674 0.620918
vt 0.3556386 0.6209041
vt 0.3556257 0.6208967
vt 0.355654 0.620906
vt 0.3556695 0.6209043
vt 0.3556824 0.6208969
vt 0.3789887 0.6211234
vt 0.3789974 0.6210898
vt 0.3789465 0.6211041
vt 0.3789617 0.6211277
vt 0.378981 0.6211575
vt 0.3789126 0.6211445
vt 0.3789687 0.6211227
vt 0.378895 0.6211367
vt 0.3789161 0.6211349
vt 0.3789029 0.621152
vt 0.3789722 0.6211408
vt 0.3789923 0.6211275
vt 0.3789874 0.6211512
vt 0.3790054 0.6211479
vt 0.3790159 0.6211328
vt 0.3790127 0.6211147
vt 0.3789976 0.6211041
vt 0.3790135 0.6211315
vt 0.3789924 0.6211316
vt 0.379007 0.6211475
vt 0.3789192 0.6211425
vt 0.378925 0.6211544
vt 0.3789395 0.6211497
vt 0.3789365 0.6211367
vt 0.3789346 0.6211286
vt 0.3789549 0.6211476
vt 0.3789543 0.6211343
vt 0.3789539 0.6211259
vt 0.3789703 0.6211483
vt 0.3789734 0.6211269
vt 0.3789722 0.6211351
vt 0.3789852 0.6211518
vt 0.3789899 0.6211394
vt 0.2387918 0.6210446
vt 0.2381789 0.6205225
vt 0.2381576 0.6205229
vt 0.2381568 0.6205414
vt 0.2381369 0.6205205
vt 0.2387481 0.6210375
vt 0.2381164 0.6205184
vt 0.238724 0.6210079
vt 0.2387226 0.6210258
vt 0.2387415 0.6210272
vt 0.238738 0.6210458
vt 0.238721 0.6210446
vt 0.2387692 0.6210403
vt 0.2387453 0.6210549
vt 0.2387643 0.6210578
vt 0.2387824 0.6210651
vt 0.238768 0.6210807
vt 0.2387569 0.6210756
vt 0.2387419 0.6210735
vt 0.2386844 0.621007
vt 0.2380757 0.6205174
vt 0.2380552 0.6205184
vt 0.238668 0.6210355
vt 0.2380344 0.6205198
vt 0.2380342 0.6205384
vt 0.2380131 0.6205184
vt 0.2386239 0.6210403
vt 0.238666 0.6210253
vt 0.2386849 0.6210249
vt 0.2386855 0.6210438
vt 0.2386685 0.621044
vt 0.2386467 0.6210373
vt 0.2386323 0.6210614
vt 0.2386507 0.6210549
vt 0.2386698 0.621053
vt 0.2386723 0.6210718
vt 0.2386572 0.6210731
vt 0.2386459 0.6210777
vt 0.3393983 0.6205357
vt 0.3393784 0.6205174
vt 0.3393785 0.6205357
vt 0.3393987 0.6205173
vt 0.3394181 0.6205367
vt 0.3394191 0.6205184
vt 0.3790159 0.6211328
vt 0.3789924 0.6211316
vt 0.3790127 0.6211147
vt 0.3789734 0.6211269
vt 0.3790054 0.6211479
vt 0.3789539 0.6211259
vt 0.3789874 0.6211512
vt 0.3789346 0.6211286
vt 0.3789722 0.6211408
vt 0.3789161 0.6211349
vt 0.1999542 0.995824
vt 0.2000315 0.9957947
vt 0.1999716 0.9957945
vt 0.2000556 0.9958242
vt 0.2000768 0.9958271
vt 0.1999315 0.9958271
vt 0.1999958 0.9958214
vt 0.1999716 0.9957945
vt 0.2000315 0.9957947
vt 0.2000156 0.9958215
vn 0 -0.4853857 -0.8743
vn 0.6704778 -0.3176787 -0.6704773
vn 0 -0.3176786 -0.9481984
vn 0.6182238 -0.4853857 -0.6182234
vn 0.9481984 -0.3176787 0
vn 0.8743002 -0.4853855 0
vn 0.6704777 -0.3176785 0.6704775
vn 0.6182237 -0.4853857 0.6182234
vn 0 -0.3176785 0.9481985
vn 0 -0.4853857 0.8743
vn -0.6704776 -0.3176786 0.6704776
vn -0.6182235 -0.4853858 0.6182235
vn -0.9481984 -0.3176786 0
vn -0.8743001 -0.4853857 0
vn -0.6704777 -0.3176787 -0.6704774
vn -0.6182236 -0.4853857 -0.6182235
vn 0 -0.3176786 -0.9481984
vn 0 -0.4853857 -0.8743
vn 0 0.06769531 0.9977061
vn -0.7054847 0.06769517 0.7054847
vn -0.6310729 0.4511032 0.6310728
vn 0 0.4511032 0.8924717
vn 0.7054846 0.06769535 0.7054849
vn 0.6310728 0.4511034 0.6310728
vn 0.5560479 0.6177554 0.5560477
vn 0 0.6177555 0.7863703
vn -0.5560479 0.6177554 0.5560477
vn 3.270959E-07 0.4538282 0.8910893
vn -0.5554838 -0.2398436 0.7961864
vn -0.6070387 0.4090563 0.6813053
vn 0 -0.1608375 0.9869809
vn 0.6070389 0.4090574 0.6813046
vn 0.5554838 -0.2398434 0.7961865
vn -0.6030709 -0.5048854 0.6175728
vn -0.4826236 -0.8583943 0.1738786
vn 0 -0.4911239 0.8710896
vn 0.6030712 -0.504885 0.6175729
vn 0.4826234 -0.8583943 0.1738787
vn 0.4621092 0.8343341 0.3005688
vn 0.6070389 0.4090574 0.6813046
vn 3.270959E-07 0.4538282 0.8910893
vn -4.934286E-07 0.8703869 0.4923685
vn -1.063518E-07 0.9964534 -0.08414634
vn -0.6070387 0.4090563 0.6813053
vn -0.4621099 0.8343335 0.3005696
vn -0.6070387 0.4090563 0.6813053
vn -0.9802697 0.1113958 0.1632857
vn -0.5554838 -0.2398436 0.7961864
vn -0.6084745 0.781328 -0.1388714
vn -1.063518E-07 0.9964534 -0.08414634
vn -0.4257978 0.6959932 -0.5781779
vn -2.650395E-07 0.650926 -0.7591411
vn 0.425797 0.695994 -0.5781775
vn 0.6084732 0.7813289 -0.1388719
vn 0.4621092 0.8343341 0.3005688
vn 0.6070389 0.4090574 0.6813046
vn 0.9802696 0.1113969 0.1632856
vn 0.5554838 -0.2398434 0.7961865
vn -0.7523131 -0.636775 0.1689455
vn -0.4826236 -0.8583943 0.1738786
vn -0.2756781 -0.9253982 -0.2600763
vn -0.5543748 -0.6320335 -0.5414816
vn -0.724054 0.04445522 -0.6883091
vn 1.001254E-07 -0.927401 -0.3740689
vn 0 -0.619491 -0.7850037
vn 1.113113E-07 0.01076502 -0.9999421
vn 0.2756781 -0.9253982 -0.2600764
vn 0.7240542 0.0444562 -0.6883089
vn 0.5543748 -0.6320335 -0.5414816
vn 0.4826234 -0.8583943 0.1738787
vn 0.7523133 -0.6367748 0.1689457
vn 0 0.06769513 -0.9977061
vn 0 -0.3176786 -0.9481984
vn 0.6704778 -0.3176787 -0.6704773
vn 0.7054848 0.06769517 -0.7054846
vn 0.9481984 -0.3176787 0
vn 0.9977061 0.06769529 1.022356E-07
vn 0.6704777 -0.3176785 0.6704775
vn 0.7054846 0.06769535 0.7054849
vn 0.6310728 0.4511034 0.6310728
vn 0.8924716 0.4511036 0
vn 0.7863703 0.6177555 0
vn 0.5560479 0.6177554 0.5560477
vn 0.7054848 0.06769517 -0.7054846
vn 0.8924716 0.4511036 0
vn 0.6310728 0.4511033 -0.6310728
vn 0 0.4511032 -0.8924718
vn 0 0.6177552 -0.7863704
vn 0.5560477 0.6177555 -0.5560478
vn 0.7863703 0.6177555 0
vn -0.7054847 0.06769517 0.7054847
vn -0.6704776 -0.3176786 0.6704776
vn -0.9481984 -0.3176786 0
vn -0.9977061 0.06769501 -1.648861E-07
vn -0.6704777 -0.3176787 -0.6704774
vn -0.7054847 0.06769501 -0.7054847
vn 0 -0.3176786 -0.9481984
vn 0 0.06769513 -0.9977061
vn -0.8924718 0.4511032 -1.658563E-07
vn -0.6310729 0.4511032 0.6310728
vn -0.5560479 0.6177554 0.5560477
vn -0.7863703 0.6177554 -1.427765E-07
vn -0.7054847 0.06769501 -0.7054847
vn 0 0.4511032 -0.8924718
vn -0.6310729 0.4511031 -0.6310729
vn -0.8924718 0.4511032 -1.658563E-07
vn -0.7863703 0.6177554 -1.427765E-07
vn -0.5560479 0.6177552 -0.5560479
vn 0 0.6177552 -0.7863704
vn 0 0.06769531 0.9977061
vn -0.6704776 -0.3176786 0.6704776
vn -0.7054847 0.06769517 0.7054847
vn 0 -0.3176785 0.9481985
vn 0.7054846 0.06769535 0.7054849
vn 0.6704777 -0.3176785 0.6704775
vn 0.425797 0.695994 -0.5781775
vn 0.9802696 0.1113969 0.1632856
vn 0.6084732 0.7813289 -0.1388719
vn 0.7240542 0.0444562 -0.6883089
vn -2.650395E-07 0.650926 -0.7591411
vn 1.113113E-07 0.01076502 -0.9999421
vn -0.4257978 0.6959932 -0.5781779
vn -0.724054 0.04445522 -0.6883091
vn -0.6084745 0.781328 -0.1388714
vn -0.9802697 0.1113958 0.1632857
vn 0 1 0
vn 0 1 0
vn 0 1 0
vn 0 1 0
vn 0 1 0
vn 0 1 0
vn 0 1 0
vn 0 1 0
vn 0 1 0
vn 0 1 0
g woman_1_0
f 3/3/3 2/2/2 1/1/1
f 2/2/2 4/4/4 1/1/1
f 2/2/2 5/5/5 4/4/4
f 5/5/5 6/6/6 4/4/4
f 5/5/5 7/7/7 6/6/6
f 7/7/7 8/8/8 6/6/6
f 7/7/7 9/9/9 8/8/8
f 9/9/9 10/10/10 8/8/8
f 9/9/9 11/11/11 10/10/10
f 11/11/11 12/12/12 10/10/10
f 11/11/11 13/13/13 12/12/12
f 13/13/13 14/14/14 12/12/12
f 13/13/13 15/15/15 14/14/14
f 15/15/15 16/16/16 14/14/14
f 15/15/15 17/17/17 16/16/16
f 17/17/17 18/18/18 16/16/16
f 21/21/21 20/20/20 19/19/19
f 22/22/22 21/21/21 19/19/19
f 22/22/22 19/19/19 23/23/23
f 24/24/24 22/22/22 23/23/23
f 22/22/22 24/24/24 25/25/25
f 26/26/26 22/22/22 25/25/25
f 21/21/21 22/22/22 26/26/26
f 27/27/27 21/21/21 26/26/26
f 30/30/30 29/29/29 28/28/28
f 29/29/29 31/31/31 28/28/28
f 28/28/28 31/31/31 32/32/32
f 31/31/31 33/33/33 32/32/32
f 31/31/31 29/29/29 34/34/34
f 34/34/34 29/29/29 35/35/35
f 36/36/36 31/31/31 34/34/34
f 33/33/33 31/31/31 36/36/36
f 37/37/37 33/33/33 36/36/36
f 37/37/37 38/38/38 33/33/33
f 41/41/41 40/40/40 39/39/39
f 42/42/42 41/41/41 39/39/39
f 39/39/39 43/43/43 42/42/42
f 44/44/44 41/41/41 42/42/42
f 42/42/42 43/43/43 45/45/45
f 45/45/45 44/44/44 42/42/42
f 47/47/47 46/46/46 45/45/45
f 46/46/46 47/47/47 48/48/48
f 49/49/49 47/47/47 45/45/45
f 45/45/45 50/50/50 49/49/49
f 49/49/49 50/50/50 51/51/51
f 51/51/51 50/50/50 52/52/52
f 52/52/52 50/50/50 53/53/53
f 53/53/53 50/50/50 54/54/54
f 54/54/54 50/50/50 55/55/55
f 55/55/55 56/56/56 54/54/54
f 56/56/56 57/57/57 54/54/54
f 56/56/56 58/58/58 57/57/57
f 47/47/47 59/59/59 48/48/48
f 60/60/60 48/48/48 59/59/59
f 60/60/60 59/59/59 61/61/61
f 62/62/62 59/59/59 47/47/47
f 59/59/59 62/62/62 61/61/61
f 63/63/63 62/62/62 47/47/47
f 61/61/61 62/62/62 64/64/64
f 65/65/65 62/62/62 63/63/63
f 62/62/62 65/65/65 64/64/64
f 66/66/66 65/65/65 63/63/63
f 64/64/64 65/65/65 67/67/67
f 66/66/66 68/68/68 65/65/65
f 65/65/65 69/69/69 67/67/67
f 68/68/68 69/69/69 65/65/65
f 68/68/68 57/57/57 69/69/69
f 67/67/67 69/69/69 70/70/70
f 57/57/57 71/71/71 69/69/69
f 69/69/69 71/71/71 70/70/70
f 57/57/57 58/58/58 71/71/71
f 70/70/70 71/71/71 58/58/58
f 74/74/74 73/73/73 72/72/72
f 75/75/75 74/74/74 72/72/72
f 76/76/76 74/74/74 75/75/75
f 77/77/77 76/76/76 75/75/75
f 78/78/78 76/76/76 77/77/77
f 79/79/79 78/78/78 77/77/77
f 80/80/80 79/79/79 77/77/77
f 81/81/81 80/80/80 77/77/77
f 80/80/80 81/81/81 82/82/82
f 83/83/83 80/80/80 82/82/82
f 85/85/85 77/77/77 84/84/84
f 86/86/86 84/84/84 72/72/72
f 86/86/86 85/85/85 84/84/84
f 87/87/87 86/86/86 72/72/72
f 86/86/86 87/87/87 88/88/88
f 89/89/89 86/86/86 88/88/88
f 85/85/85 86/86/86 89/89/89
f 90/90/90 85/85/85 89/89/89
f 93/93/93 92/92/92 91/91/91
f 94/94/94 93/93/93 91/91/91
f 95/95/95 93/93/93 94/94/94
f 96/96/96 95/95/95 94/94/94
f 97/97/97 95/95/95 96/96/96
f 98/98/98 97/97/97 96/96/96
f 99/99/99 94/94/94 91/91/91
f 100/100/100 99/99/99 91/91/91
f 99/99/99 100/100/100 101/101/101
f 102/102/102 99/99/99 101/101/101
f 104/104/104 98/98/98 103/103/103
f 105/105/105 103/103/103 94/94/94
f 105/105/105 104/104/104 103/103/103
f 106/106/106 105/105/105 94/94/94
f 105/105/105 106/106/106 107/107/107
f 108/108/108 105/105/105 107/107/107
f 104/104/104 105/105/105 108/108/108
f 109/109/109 104/104/104 108/108/108
f 112/112/112 111/111/111 110/110/110
f 111/111/111 113/113/113 110/110/110
f 110/110/110 113/113/113 114/114/114
f 113/113/113 115/115/115 114/114/114
f 118/118/118 117/117/117 116/116/116
f 117/117/117 119/119/119 116/116/116
f 116/116/116 119/119/119 120/120/120
f 119/119/119 121/121/121 120/120/120
f 120/120/120 121/121/121 122/122/122
f 121/121/121 123/123/123 122/122/122
f 122/122/122 123/123/123 124/124/124
f 123/123/123 125/125/125 124/124/124
f 128/128/128 127/127/127 126/126/126
f 127/127/127 129/129/129 126/126/126
f 126/126/126 129/129/129 130/130/130
f 131/131/131 126/126/126 130/130/130
f 134/134/134 133/133/133 132/132/132
f 135/135/135 134/134/134 132/132/132
